<?xml version="1.0" encoding="UTF-8"?>
<svg version="1.1" xmlns="http://www.w3.org/2000/svg" width="416" height="449">
<path d="M0 0 C2.33473985 -0.00452788 4.6694517 -0.01224329 7.00418091 -0.02053452 C35.61090182 -0.10780589 35.61090182 -0.10780589 47.49124146 0.97980118 C48.55640991 1.06460739 48.55640991 1.06460739 49.64309692 1.15112686 C56.3331193 1.91313291 61.72681779 5.29387875 66.87405396 9.46808243 C69.12947687 11.26603749 71.39523725 13.03090735 73.71780396 14.74151993 C85.14571062 23.22970665 95.85729042 32.64900111 106.35842896 42.24542618 C107.37131994 43.16484008 108.38434711 44.08410397 109.39749146 45.00323868 C116.77539518 51.71136064 123.91669827 58.46823594 130.42483521 66.03448868 C132.60438877 68.52666507 134.85616176 70.94381286 137.10842896 73.37042618 C148.14546449 85.50451645 157.86961169 98.88498196 167.35842896 112.24542618 C168.0562146 113.10224991 168.75400024 113.95907364 169.47293091 114.84186172 C172.06981959 119.529577 172.27975135 123.66106369 172.59280396 128.95245743 C172.70540558 130.63006905 172.70540558 130.63006905 172.82028198 132.34157181 C173.82992085 149.53276452 173.66471562 166.77680765 173.61617661 183.99034882 C173.60834747 186.96387432 173.60382081 189.9373898 173.60003662 192.910923 C173.56214105 218.55116046 173.3229605 244.1788625 172.54592896 269.80792618 C172.51108398 271.05085434 172.47623901 272.2937825 172.44033813 273.57437515 C170.6091697 336.27402401 170.6091697 336.27402401 151.35842896 358.24542618 C150.50184692 359.2605629 150.50184692 359.2605629 149.62796021 360.29620743 C131.85962031 379.80728429 102.9625436 381.12870214 78.35842896 382.87042618 C77.51204865 382.93235153 76.66566833 382.99427689 75.79364014 383.05807877 C-87.95991613 395.02153765 -87.95991613 395.02153765 -121.84078979 366.65948868 C-124.89956089 363.97367014 -127.77649447 361.13616015 -130.64157104 358.24542618 C-131.23711792 357.68339493 -131.83266479 357.12136368 -132.44625854 356.54230118 C-149.75965567 338.7609744 -150.72168901 309.8007928 -151.70407104 286.62042618 C-151.78714339 284.74940944 -151.87031574 282.87839715 -151.95358276 281.00738907 C-152.19783198 275.4206372 -152.42310969 269.83323975 -152.64157104 264.24542618 C-152.68861176 263.05738388 -152.68861176 263.05738388 -152.73660278 261.84534073 C-154.36228696 220.38092318 -153.74544672 178.92281932 -152.82968521 137.44952011 C-152.76721161 134.58727398 -152.70720995 131.72498522 -152.64776611 128.86267471 C-151.54262841 76.27759966 -151.54262841 76.27759966 -147.51657104 60.37042618 C-147.30629272 59.5180336 -147.0960144 58.66564102 -146.87936401 57.78741837 C-142.32785517 40.57853334 -132.67874699 24.55870035 -117.25875854 15.10870743 C-83.85857742 -4.2714801 -37.36027224 0.06016118 0 0 Z " fill="#18CCB1" transform="translate(197.64157104492188,31.754573822021484)"/>
<path d="M0 0 C19.7500193 7.6190451 37.56177058 25.89183342 53 40 C54.01289099 40.9194139 55.02591816 41.83867779 56.0390625 42.7578125 C63.41696623 49.46593446 70.55826932 56.22280977 77.06640625 63.7890625 C79.24595981 66.2812389 81.4977328 68.69838668 83.75 71.125 C118 108.77936747 118 108.77936747 118 118 C98.72182548 121.00313271 78.18540599 119.27567543 58.8125 117.6875 C57.68817566 117.59921936 57.68817566 117.59921936 56.5411377 117.50915527 C40.54920521 116.22610718 25.10450387 114.4267565 13.59375 102.1015625 C5.10057136 90.902224 2.6447737 77.33760605 1.3125 63.6875 C1.18512451 62.399646 1.05774902 61.11179199 0.92651367 59.78491211 C-0.86190257 39.9357323 -0.2540108 19.90532834 0 0 Z " fill="#00536F" transform="translate(251,34)"/>
<path d="M0 0 C2.6875 0.6875 2.6875 0.6875 4.6875 2.6875 C5.08887878 5.67554201 4.9804882 7.20571697 3.40234375 9.80078125 C2.81582031 10.52652344 2.22929687 11.25226563 1.625 12 C-12.6857394 31.56185749 -20.75642405 62.72568179 -21.3125 86.6875 C-17.25898439 83.75441036 -14.51063479 80.53241087 -11.8125 76.375 C-11.39307129 75.73981445 -10.97364258 75.10462891 -10.54150391 74.45019531 C-6.02372071 67.47278478 -2.04913422 60.18864837 1.9855957 52.92578125 C6.20969962 45.37927048 10.52668276 37.84831724 16.6875 31.6875 C20.25 31.5 20.25 31.5 23.6875 31.6875 C24.6875 32.6875 24.6875 32.6875 25.0625 35.4375 C25.03134153 40.48517163 22.74894092 44.84333644 20.8671875 49.44140625 C19.3513962 53.61234191 18.91193321 57.27364696 18.6875 61.6875 C25.10553564 59.52347003 28.52837569 56.16877099 32.9375 51.125 C34.14841853 49.76718734 35.36186139 48.41162063 36.578125 47.05859375 C37.10438477 46.45974365 37.63064453 45.86089355 38.17285156 45.24389648 C40.62227688 42.726958 42.2303379 41.72481936 45.75 41.4375 C48.6875 41.6875 48.6875 41.6875 50.6875 43.6875 C50.6640625 46.7265625 50.6640625 46.7265625 50.3125 50.3125 C50.20164062 51.50101562 50.09078125 52.68953125 49.9765625 53.9140625 C49.88117188 54.82929688 49.78578125 55.74453125 49.6875 56.6875 C54.77386363 54.72043321 58.49510347 52.49725044 62.75 49 C75.52910908 38.85648897 90.79014939 29.97752729 107.6875 30.6875 C110.875 31.8125 110.875 31.8125 112.6875 33.6875 C113.125 36.25 113.125 36.25 112.6875 38.6875 C109.99860479 41.37639521 108.25896549 41.08071683 104.5 41.4375 C91.35339489 43.1885847 81.08545269 48.46438627 70.6875 56.6875 C55.5990847 67.84270542 55.5990847 67.84270542 46.6875 66.6875 C43.46131267 64.6084015 41.8205698 62.88710471 39.6875 59.6875 C39.10742188 60.30238281 38.52734375 60.91726563 37.9296875 61.55078125 C32.26191131 67.41496552 28.08345013 71.62430737 19.6875 72.3125 C16.58285916 72.24684294 15.16100904 72.06368703 12.7109375 70.1171875 C11.21966378 68.37147845 9.9070844 66.63090279 8.6875 64.6875 C5.8367025 68.06018263 3.49665439 71.53561873 1.23681641 75.31005859 C-10.27781435 94.53444607 -10.27781435 94.53444607 -18.3125 97.6875 C-21.8125 98.125 -21.8125 98.125 -25.3125 97.6875 C-29.7125224 93.40326767 -30.46056705 89.65134742 -30.60546875 83.63598633 C-30.8123851 57.6964354 -22.18418666 22.18333955 -4.98046875 2.06640625 C-3.3125 0.6875 -3.3125 0.6875 0 0 Z " fill="#005570" transform="translate(177.3125,218.3125)"/>
<path d="M0 0 C2.3431213 0.25561323 4.67843403 0.59270772 7 1 C8.16425183 3.32850367 8.13859876 4.71654379 8.16113281 7.31030273 C8.17074036 8.20140244 8.1803479 9.09250214 8.19024658 10.01060486 C8.19449646 10.97519119 8.19874634 11.93977753 8.203125 12.93359375 C8.20882507 13.92247086 8.21452515 14.91134796 8.22039795 15.93019104 C8.22985377 18.02416918 8.23638423 20.11816225 8.24023438 22.2121582 C8.24995004 25.42099828 8.28097223 28.6292007 8.3125 31.83789062 C8.31902889 33.86978785 8.32427981 35.90168967 8.328125 37.93359375 C8.3404718 38.89615585 8.3528186 39.85871796 8.36553955 40.85044861 C8.36253845 41.74470047 8.35953735 42.63895233 8.35644531 43.56030273 C8.36191376 44.74039162 8.36191376 44.74039162 8.36749268 45.94432068 C7.89484012 48.58824299 7.17883144 49.45142707 5 51 C2.9510498 51.38095093 2.9510498 51.38095093 0.57617188 51.38818359 C-0.31485229 51.39764008 -1.20587646 51.40709656 -2.12390137 51.4168396 C-3.08332642 51.41076691 -4.04275146 51.40469421 -5.03125 51.3984375 C-6.01871216 51.40130768 -7.00617432 51.40417786 -8.02355957 51.40713501 C-10.1115781 51.40917675 -12.1996157 51.40363925 -14.28759766 51.39111328 C-17.48773883 51.3750615 -20.68661696 51.39095859 -23.88671875 51.41015625 C-25.91406529 51.40817384 -27.94141105 51.40433021 -29.96875 51.3984375 C-31.40788757 51.40754654 -31.40788757 51.40754654 -32.87609863 51.4168396 C-33.7671228 51.40738312 -34.65814697 51.39792664 -35.57617188 51.38818359 C-36.35988159 51.38579681 -37.14359131 51.38341003 -37.9510498 51.38095093 C-40.53364759 50.90078161 -41.42619851 50.07118798 -43 48 C-43.3125 45.4375 -43.3125 45.4375 -43 43 C-41 41 -41 41 -37.19287109 40.77294922 C-35.5530258 40.77326654 -33.91315983 40.78460319 -32.2734375 40.8046875 C-30.97921371 40.80893234 -30.97921371 40.80893234 -29.65884399 40.81326294 C-26.8974228 40.82447667 -24.1363235 40.84958316 -21.375 40.875 C-19.50521301 40.88502827 -17.63542095 40.89415438 -15.765625 40.90234375 C-11.17695891 40.92441988 -6.58853407 40.95895766 -2 41 C-2.01571045 39.29686646 -2.01571045 39.29686646 -2.03173828 37.55932617 C-2.06792055 33.34939727 -2.09089402 29.13948213 -2.10986328 24.92944336 C-2.11992491 23.10682871 -2.1335756 21.28423021 -2.15087891 19.46166992 C-2.17512021 16.84289565 -2.18648138 14.22433469 -2.1953125 11.60546875 C-2.20563507 10.78974899 -2.21595764 9.97402924 -2.22659302 9.1335907 C-2.2273686 5.22869244 -2.21650661 3.32475992 0 0 Z " fill="#005670" transform="translate(282,296)"/>
<path d="M0 0 C3.5625 0.25 3.5625 0.25 7 1 C8.63945963 4.27891925 8.12030178 7.90613534 8.09765625 11.5078125 C8.0962413 12.34843231 8.09482635 13.18905212 8.09336853 14.05514526 C8.08776237 16.74513275 8.07520886 19.43503759 8.0625 22.125 C8.05748579 23.94661338 8.05292275 25.76822807 8.04882812 27.58984375 C8.03779094 32.05992777 8.0205222 36.52994986 8 41 C9.70313354 40.97643433 9.70313354 40.97643433 11.44067383 40.95239258 C15.65056269 40.89811968 19.86042059 40.86365963 24.07055664 40.83520508 C25.89320067 40.8201124 27.71580836 40.79963605 29.53833008 40.77368164 C32.157155 40.73731897 34.77550007 40.72027876 37.39453125 40.70703125 C38.21025101 40.69154739 39.02597076 40.67606354 39.8664093 40.66011047 C45.56056748 40.65841402 45.56056748 40.65841402 47.75102234 42.36112976 C49 44 49 44 48.8125 46.5625 C48 49 48 49 46 51 C44.07130432 51.26069641 44.07130432 51.26069641 41.68969727 51.2746582 C40.35304771 51.28895622 40.35304771 51.28895622 38.98939514 51.30354309 C38.02480881 51.30263168 37.06022247 51.30172028 36.06640625 51.30078125 C35.07752914 51.30506638 34.08865204 51.3093515 33.06980896 51.31376648 C30.9758277 51.31951637 28.88182647 51.32000521 26.7878418 51.31567383 C23.5789184 51.31251616 20.37091853 51.33595718 17.16210938 51.36132812 C15.1302095 51.36360122 13.09830714 51.36430457 11.06640625 51.36328125 C9.6225631 51.37709587 9.6225631 51.37709587 8.14955139 51.39118958 C7.25529953 51.38496078 6.36104767 51.37873199 5.43969727 51.37231445 C4.65297134 51.37294388 3.86624542 51.3735733 3.05567932 51.3742218 C0.41206077 50.89296984 -0.45415135 50.18384919 -2 48 C-2.3742218 45.90635681 -2.3742218 45.90635681 -2.37231445 43.46850586 C-2.37854324 42.55423325 -2.38477203 41.63996063 -2.39118958 40.69798279 C-2.37737495 39.22132896 -2.37737495 39.22132896 -2.36328125 37.71484375 C-2.36377975 36.70281387 -2.36427826 35.690784 -2.36479187 34.64808655 C-2.36245112 32.50877926 -2.35272261 30.36946923 -2.33618164 28.23022461 C-2.31256727 24.94685385 -2.31562348 21.66429358 -2.32226562 18.38085938 C-2.31668975 16.30468264 -2.30958045 14.22850933 -2.30078125 12.15234375 C-2.30169266 11.16588364 -2.30260406 10.17942352 -2.30354309 9.16307068 C-2.29401108 8.25195023 -2.28447906 7.34082977 -2.2746582 6.40209961 C-2.27005081 5.59840439 -2.26544342 4.79470917 -2.26069641 3.96665955 C-2 2 -2 2 0 0 Z " fill="#005670" transform="translate(128,296)"/>
<path d="M0 0 C0.91112045 -0.00953201 1.82224091 -0.01906403 2.76097107 -0.02888489 C4.24066124 -0.02751778 4.24066124 -0.02751778 5.75024414 -0.02612305 C6.76131729 -0.03040817 7.77239044 -0.0346933 8.81410217 -0.03910828 C10.95516205 -0.0448584 13.09624147 -0.04534684 15.23730469 -0.04101562 C18.51864882 -0.03785792 21.79908986 -0.06129893 25.08032227 -0.08666992 C27.15779508 -0.08894301 29.23527033 -0.08964637 31.31274414 -0.08862305 C32.29718002 -0.09783279 33.28161591 -0.10704254 34.29588318 -0.11653137 C35.21015579 -0.11030258 36.12442841 -0.10407379 37.06640625 -0.09765625 C38.27314247 -0.09860039 38.27314247 -0.09860039 39.5042572 -0.0995636 C42.17106258 0.37710631 43.0398119 1.07354906 44.59790039 3.2746582 C44.97885132 5.3236084 44.97885132 5.3236084 44.98608398 7.69848633 C44.99554047 8.5895105 45.00499695 9.48053467 45.01473999 10.39855957 C45.0086673 11.35798462 45.0025946 12.31740967 44.99633789 13.3059082 C44.99920807 14.29337036 45.00207825 15.28083252 45.0050354 16.29821777 C45.00707714 18.3862363 45.00153964 20.47427391 44.98901367 22.56225586 C44.97296189 25.76239704 44.98885898 28.96127516 45.00805664 32.16137695 C45.00607423 34.1887235 45.0022306 36.21606925 44.99633789 38.2434082 C45.00241058 39.20283325 45.00848328 40.1622583 45.01473999 41.15075684 C45.00528351 42.04178101 44.99582703 42.93280518 44.98608398 43.85083008 C44.9836972 44.63453979 44.98131042 45.41824951 44.97885132 46.22570801 C44.49905131 48.80631947 43.68903425 49.72564704 41.59790039 51.2746582 C38.25597347 51.03012696 36.99246482 50.66922263 34.59790039 48.2746582 C34.4225775 45.40577239 34.36652425 42.63473175 34.40258789 39.7668457 C34.40541779 38.92622589 34.40824768 38.08560608 34.41116333 37.21951294 C34.42237609 34.52941774 34.44748236 31.8396531 34.47290039 29.1496582 C34.48292879 27.32804842 34.49205488 25.50643343 34.50024414 23.68481445 C34.52231897 19.21463462 34.55685605 14.74470249 34.59790039 10.2746582 C33.46247803 10.29036865 32.32705566 10.3060791 31.15722656 10.32226562 C26.9473377 10.37653852 22.7374798 10.41099857 18.52734375 10.43945312 C16.70469972 10.45454581 14.88209203 10.47502216 13.05957031 10.50097656 C10.44074539 10.53733923 7.82240032 10.55437944 5.20336914 10.56762695 C3.97978951 10.59085274 3.97978951 10.59085274 2.73149109 10.61454773 C-2.97050657 10.61624652 -2.97050657 10.61624652 -5.12187195 8.91352844 C-6.40209961 7.2746582 -6.40209961 7.2746582 -6.71459961 4.7121582 C-6.1443038 0.2638509 -3.97320575 0.02277743 0 0 Z " fill="#005670" transform="translate(245.402099609375,182.725341796875)"/>
<path d="M0 0 C1.36668068 -0.00945648 1.36668068 -0.00945648 2.76097107 -0.019104 C3.74743118 -0.01505554 4.7338913 -0.01100708 5.75024414 -0.00683594 C6.76131729 -0.00874939 7.77239044 -0.01066284 8.81410217 -0.01263428 C10.9551722 -0.01399697 13.09625047 -0.01029469 15.23730469 -0.00195312 C18.51849927 0.00873401 21.79914493 -0.00184 25.08032227 -0.01464844 C27.15779744 -0.01332664 29.23527226 -0.01076383 31.31274414 -0.00683594 C32.29718002 -0.0108844 33.28161591 -0.01493286 34.29588318 -0.019104 C35.21015579 -0.01279968 36.12442841 -0.00649536 37.06640625 0 C37.87089706 0.00159119 38.67538788 0.00318237 39.5042572 0.00482178 C41.59790039 0.25878906 41.59790039 0.25878906 44.59790039 2.25878906 C44.97290039 4.69628906 44.97290039 4.69628906 44.59790039 7.25878906 C43.31376648 8.8976593 43.31376648 8.8976593 41.59790039 10.25878906 C38.65605298 10.52046586 35.93052829 10.60752827 32.99243164 10.55175781 C32.15322678 10.54751297 31.31402191 10.54326813 30.4493866 10.53889465 C27.76939794 10.5221037 25.09016169 10.48445136 22.41040039 10.44628906 C20.59335396 10.43124273 18.77629574 10.41755424 16.95922852 10.40527344 C12.50516263 10.37219888 8.05165907 10.32041419 3.59790039 10.25878906 C3.62146606 11.90862793 3.62146606 11.90862793 3.64550781 13.59179688 C3.69985342 17.67684593 3.73426723 21.76186309 3.76269531 25.84716797 C3.77777141 27.61447526 3.79823561 29.3817452 3.82421875 31.14892578 C3.86065441 33.69084902 3.87763833 36.23227712 3.89086914 38.77441406 C3.906353 39.56309875 3.92183685 40.35178345 3.93778992 41.16436768 C3.93883039 44.56445357 3.85106521 46.8368884 2.07958984 49.7890625 C1.59063232 50.27407227 1.1016748 50.75908203 0.59790039 51.25878906 C-4.15209961 50.50878906 -4.15209961 50.50878906 -6.40209961 48.25878906 C-6.65606689 46.28540039 -6.65606689 46.28540039 -6.66088867 43.84082031 C-6.66719299 42.92647217 -6.67349731 42.01212402 -6.67999268 41.07006836 C-6.67594421 40.08047119 -6.67189575 39.09087402 -6.66772461 38.07128906 C-6.66963806 37.05784424 -6.67155151 36.04439941 -6.67352295 35.00024414 C-6.67488552 32.85497795 -6.67118408 30.70970353 -6.6628418 28.56445312 C-6.65214343 25.27227334 -6.6627348 21.98063928 -6.67553711 18.68847656 C-6.67421553 16.60774619 -6.67165316 14.52701615 -6.66772461 12.44628906 C-6.67177307 11.45669189 -6.67582153 10.46709473 -6.67999268 9.44750977 C-6.67368835 8.53316162 -6.66738403 7.61881348 -6.66088867 6.67675781 C-6.65929749 5.87004639 -6.6577063 5.06333496 -6.65606689 4.23217773 C-6.11896531 0.05876548 -3.58840806 0.00710447 0 0 Z " fill="#005670" transform="translate(132.402099609375,182.7412109375)"/>
</svg>
